<svg xmlns="http://www.w3.org/2000/svg" width="30.513" height="31.135" viewBox="0 0 30.513 31.135">
  <g id="google-icon" transform="translate(0 0)">
    <path id="Shape" d="M14.945,3.183A13.341,13.341,0,0,0,14.616,0H0V5.777H8.579A7.608,7.608,0,0,1,5.4,10.828l-.029.193L9.989,14.6l.32.032A15.221,15.221,0,0,0,14.945,3.183" transform="translate(15.568 12.731)" fill="#4285f4"/>
    <path id="Shape-2" data-name="Shape" d="M13.907,12.489A14.838,14.838,0,0,0,24.216,8.718L19.3,4.912a9.214,9.214,0,0,1-5.4,1.557A9.372,9.372,0,0,1,5.051,0L4.868.016.063,3.734,0,3.909a15.556,15.556,0,0,0,13.907,8.58" transform="translate(1.661 18.647)" fill="#34a853"/>
    <path id="Shape-3" data-name="Shape" d="M6.711,10.143a9.584,9.584,0,0,1-.519-3.079,10.071,10.071,0,0,1,.5-3.079l-.009-.206L1.82,0,1.661.076a15.535,15.535,0,0,0,0,13.976l5.051-3.909" transform="translate(0 8.504)" fill="#fbbc05"/>
    <path id="Shape-4" data-name="Shape" d="M13.907,6.019a8.628,8.628,0,0,1,6.019,2.318l4.394-4.29A14.957,14.957,0,0,0,13.907,0,15.556,15.556,0,0,0,0,8.579l5.034,3.909a9.41,9.41,0,0,1,8.874-6.469" transform="translate(1.661 0)" fill="#eb4335"/>
  </g>
</svg>
