<svg xmlns="http://www.w3.org/2000/svg" width="128" height="128" viewBox="0 0 128 128">
  <g id="Group_476" data-name="Group 476" transform="translate(-103.886 -56.824)">
    <rect id="Rectangle_333" data-name="Rectangle 333" width="11.098" height="24.971" rx="5.177" transform="translate(218.113 59.783)" fill="#eb4a16"/>
    <path id="Path_180" data-name="Path 180" d="M306.939,430.085v22.2a1.387,1.387,0,0,1-1.387,1.387H255.609a1.387,1.387,0,0,1-1.387-1.387v-8.324a1.387,1.387,0,0,1,1.387-1.387h11.1a1.387,1.387,0,0,0,1.387-1.387v-11.1a1.387,1.387,0,0,1,1.387-1.387h8.324a1.387,1.387,0,0,1,1.387,1.387v11.1a1.387,1.387,0,0,0,1.387,1.387h13.873a1.388,1.388,0,0,0,1.387-1.387v-11.1a1.387,1.387,0,0,1,1.387-1.387h8.324A1.387,1.387,0,0,1,306.939,430.085Z" transform="translate(-133.219 -285.678)" fill="#b30d1c"/>
    <rect id="Rectangle_326" data-name="Rectangle 326" width="11.098" height="11.098" rx="4.314" transform="translate(148.749 143.02)" fill="#b30d1c"/>
    <path id="Path_181" data-name="Path 181" d="M322.069,257.542v38.844a1.387,1.387,0,0,1-1.387,1.387H226.347a1.387,1.387,0,0,0-1.387,1.387v11.1a1.387,1.387,0,0,1-1.387,1.387h-11.1a1.387,1.387,0,0,0-1.387,1.387V349.1a1.387,1.387,0,0,0,1.387,1.387H331.78a1.387,1.387,0,0,0,1.387-1.387v-36.07a1.387,1.387,0,0,0-1.387-1.387H281.838a1.387,1.387,0,0,0-1.387,1.387V338a1.387,1.387,0,0,1-1.387,1.387H223.572A1.387,1.387,0,0,1,222.185,338V324.132a1.387,1.387,0,0,1,1.387-1.387h11.1a1.387,1.387,0,0,0,1.387-1.387v-11.1a1.387,1.387,0,0,1,1.387-1.387H331.78a1.388,1.388,0,0,0,1.387-1.387V257.542a1.387,1.387,0,0,0-1.387-1.387h-8.323A1.387,1.387,0,0,0,322.069,257.542Zm-2.775,69.364v8.324a1.387,1.387,0,0,1-1.387,1.387h-8.324a1.387,1.387,0,0,1-1.387-1.387v-8.324a1.387,1.387,0,0,1,1.387-1.387h8.324A1.387,1.387,0,0,1,319.295,326.906Zm-13.873,0v8.324a1.387,1.387,0,0,1-1.387,1.387h-8.324a1.387,1.387,0,0,1-1.387-1.387v-8.324a1.387,1.387,0,0,1,1.387-1.387h8.324A1.387,1.387,0,0,1,305.422,326.906Z" transform="translate(-103.956 -168.626)" fill="#b30d1c"/>
    <path id="Path_182" data-name="Path 182" d="M426.766,171.27v8.324a1.387,1.387,0,0,0,1.387,1.387h24.971a1.387,1.387,0,0,1,1.387,1.387v13.873a1.387,1.387,0,0,1-1.387,1.387H428.153a1.387,1.387,0,0,0-1.387,1.387v22.2a1.387,1.387,0,0,0,1.387,1.387h22.2a1.387,1.387,0,0,0,1.387-1.387v-11.1a1.387,1.387,0,0,1,1.387-1.387h0a1.387,1.387,0,0,1,1.387,1.387v24.971a1.387,1.387,0,0,0,1.387,1.387h8.324a1.387,1.387,0,0,0,1.387-1.387V171.27a1.387,1.387,0,0,0-1.387-1.387H428.153A1.387,1.387,0,0,0,426.766,171.27ZM440.639,211.5h-2.775v-2.775h2.775Z" transform="translate(-250.271 -110.1)" fill="#b30d1c"/>
    <rect id="Rectangle_327" data-name="Rectangle 327" width="11.099" height="11.099" rx="4.877" transform="translate(190.367 73.654)" fill="#b30d1c"/>
    <rect id="Rectangle_328" data-name="Rectangle 328" width="11.098" height="11.098" rx="4.877" transform="translate(176.494 73.656)" fill="#b30d1c"/>
    <path id="Path_183" data-name="Path 183" d="M277.676,171.27v8.324a1.387,1.387,0,0,1-1.387,1.387H223.572a1.387,1.387,0,0,0-1.387,1.387v27.746a1.387,1.387,0,0,0,1.387,1.387h13.873a1.387,1.387,0,0,0,1.387-1.387v-11.1a1.387,1.387,0,0,1,1.387-1.387h8.324a1.387,1.387,0,0,1,1.387,1.387v11.1a1.387,1.387,0,0,0,1.387,1.387h13.873a1.387,1.387,0,0,0,1.387-1.387v-11.1a1.387,1.387,0,0,1,1.387-1.387h8.324a1.387,1.387,0,0,1,1.387,1.387v22.2a1.387,1.387,0,0,1-1.387,1.387H212.474a1.387,1.387,0,0,1-1.387-1.387V171.27a1.387,1.387,0,0,1,1.387-1.387h63.815A1.387,1.387,0,0,1,277.676,171.27Z" transform="translate(-103.956 -110.1)" fill="#b30d1c"/>
    <rect id="Rectangle_329" data-name="Rectangle 329" width="11.098" height="11.098" rx="4.314" transform="translate(148.749 115.274)" fill="#b30d1c"/>
    <path id="Path_184" data-name="Path 184" d="M279.193,343.816v8.323a1.39,1.39,0,0,1-1.389,1.389H256.664c-1.351,0-2.444-.624-2.444-1.389v-8.323c0-.765,1.093-1.386,2.444-1.386H277.8A1.387,1.387,0,0,1,279.193,343.816Z" transform="translate(-133.218 -227.154)" fill="#eb4a16"/>
    <rect id="Rectangle_330" data-name="Rectangle 330" width="11.098" height="11.098" rx="4.314" transform="translate(107.13 115.274)" fill="#b30d1c"/>
    <rect id="Rectangle_331" data-name="Rectangle 331" width="11.098" height="11.098" rx="4.314" transform="translate(107.13 129.147)" fill="#b30d1c"/>
    <rect id="Rectangle_332" data-name="Rectangle 332" width="38.844" height="11.098" rx="4.314" transform="translate(162.622 115.274)" fill="#eb4a16"/>
    <path id="Path_185" data-name="Path 185" d="M279.187,214.58v7.962a1.568,1.568,0,0,1-1.568,1.568H266.882a1.568,1.568,0,0,0-1.568,1.568v10.736a1.569,1.569,0,0,1-1.568,1.568h-7.962a1.568,1.568,0,0,1-1.568-1.568V214.58a1.568,1.568,0,0,1,1.568-1.568h21.835A1.568,1.568,0,0,1,279.187,214.58Z" transform="translate(-133.214 -139.358)" fill="#eb4a16"/>
    <path id="Path_186" data-name="Path 186" d="M365.465,214.406v8.324a1.387,1.387,0,0,1-1.387,1.387h-11.1a1.387,1.387,0,0,0-1.387,1.387v11.1a1.387,1.387,0,0,1-1.387,1.387h-8.324a1.387,1.387,0,0,1-1.387-1.387v-22.2a1.387,1.387,0,0,1,1.387-1.387h22.2A1.387,1.387,0,0,1,365.465,214.406Z" transform="translate(-191.745 -139.363)" fill="#eb4a16"/>
    <rect id="Rectangle_334" data-name="Rectangle 334" width="11.099" height="11.099" transform="translate(204.24 156.893)" fill="#eb4a16" stroke="#191919" stroke-width="1"/>
    <rect id="Rectangle_335" data-name="Rectangle 335" width="11.099" height="11.099" transform="translate(190.367 156.893)" fill="#eb4a16" stroke="#191919" stroke-width="1"/>
    <g id="Group_474" data-name="Group 474" transform="translate(103.886 56.824)">
      <path id="Path_187" data-name="Path 187" d="M323.71,288.681H206.29a5.3,5.3,0,0,1-5.29-5.29V165.97a5.3,5.3,0,0,1,5.29-5.289H323.71A5.3,5.3,0,0,1,329,165.97V283.391A5.3,5.3,0,0,1,323.71,288.681ZM206.29,161.8a4.18,4.18,0,0,0-4.175,4.175V283.391a4.18,4.18,0,0,0,4.175,4.175H323.71a4.18,4.18,0,0,0,4.175-4.175V165.97a4.18,4.18,0,0,0-4.175-4.175Z" transform="translate(-201 -160.681)" fill="#eb4a16"/>
    </g>
  </g>
</svg>
